# Blender v2.92.0 OBJ File: 'wanzheng.blend'
# www.blender.org
mtllib pingmian.mtl
o 平面
v -7.696732 -0.000003 7.804550
v 9.076052 -0.000003 7.804550
v 9.076052 0.000003 -8.968233
v -7.696732 0.000003 -8.968233
v 9.076052 4.699542 -8.968232
v -7.696732 4.699542 -8.968232
v 9.076052 4.699536 7.804551
v -7.696732 4.699536 7.804551
vt 0.000000 0.000000
vt 1.000000 0.000000
vt 1.000000 1.000000
vt 0.000000 1.000000
vt 1.000000 1.000000
vt 0.000000 1.000000
vt 1.000000 0.000000
vt 0.000000 0.000000
vn 0.0000 1.0000 0.0000
vn 0.0000 -0.0000 1.0000
vn -1.0000 0.0000 0.0000
vn 1.0000 0.0000 0.0000
usemtl None
s 1
f 1/1/1 2/2/1 3/3/1 4/4/1
f 4/4/2 3/3/2 5/5/2 6/6/2
f 3/3/3 2/2/3 7/7/3 5/5/3
f 1/1/4 4/4/4 6/6/4 8/8/4
