# Blender v2.83.13 OBJ File: 'jieti.blend'
# www.blender.org
mtllib third.mtl
o shapr3d_export_2021-03-27_19h21m_实体__06
v -0.767892 1.887037 -4.188097
v 1.232105 1.887037 -4.188097
v 1.232105 1.911953 -1.388208
v -0.767892 1.911953 -1.388208
v -0.767892 2.911913 -1.397107
v -0.767892 1.911953 -1.388208
v 1.232105 1.911953 -1.388208
v 1.232105 2.911913 -1.397107
v -0.767892 2.886997 -4.196996
v -0.767892 1.887037 -4.188097
v -0.767892 1.911953 -1.388208
v -0.767892 2.911913 -1.397107
v 1.232105 2.886997 -4.196996
v 1.232105 1.887037 -4.188097
v -0.767892 1.887037 -4.188097
v -0.767892 2.886997 -4.196996
v -0.767892 2.911913 -1.397107
v 1.232105 2.911913 -1.397107
v 1.232105 2.886997 -4.196996
v -0.767892 2.886997 -4.196996
v 1.232105 2.911913 -1.397107
v 1.232105 1.911953 -1.388208
v 1.232105 1.887037 -4.188097
v 1.232105 2.886997 -4.196996
vt 0.000000 1.000000
vt 0.999985 1.000000
vt 1.000000 0.000000
vt 0.000000 0.000000
vt 1.000000 1.000000
vt 1.000000 0.000000
vt 0.000000 0.000000
vt 0.000000 1.000000
vt 0.000000 1.000000
vt 1.000000 1.000000
vt 1.000000 0.000000
vt 0.000000 0.000000
vt 0.000000 1.000000
vt 1.000000 1.000000
vt 1.000000 0.000000
vt 0.000000 0.000000
vt 0.000000 0.000000
vt 1.000000 0.000000
vt 0.999985 1.000000
vt 0.000000 1.000000
vt 1.000000 1.000000
vt 1.000000 0.000000
vt 0.000000 0.000000
vt 0.000000 1.000000
vn 0.0000 -1.0000 0.0089
vn 0.0000 0.0089 1.0000
vn -1.0000 0.0000 0.0000
vn 0.0000 -0.0089 -1.0000
vn 0.0000 1.0000 -0.0089
vn 1.0000 0.0000 0.0000
usemtl Default_OBJ.004
s 1
f 1/1/1 2/2/1 3/3/1
f 3/3/1 4/4/1 1/1/1
f 5/5/2 6/6/2 7/7/2
f 7/7/2 8/8/2 5/5/2
f 9/9/3 10/10/3 11/11/3
f 11/11/3 12/12/3 9/9/3
f 13/13/4 14/14/4 15/15/4
f 15/15/4 16/16/4 13/13/4
f 17/17/5 18/18/5 19/19/5
f 19/19/5 20/20/5 17/17/5
f 21/21/6 22/22/6 23/23/6
f 23/23/6 24/24/6 21/21/6
