# Blender v2.92.0 OBJ File: ''
# www.blender.org
mtllib book8.mtl
o 立方体.008
v 8.480385 1.753869 4.188925
v 8.480385 2.374335 4.188925
v 8.049141 2.374335 4.188925
v 8.049141 1.753869 4.188925
v 8.049141 2.374335 4.109706
v 8.049141 1.753869 4.109706
v 8.480385 2.374335 4.109706
v 8.480385 1.753869 4.109706
vt 0.874338 0.060321
vt 0.871163 0.965077
vt 0.172893 0.977776
vt 0.166543 0.022224
vt 0.375000 0.000000
vt 0.625000 0.000000
vt 0.625000 0.250000
vt 0.375000 0.250000
vt 0.625000 0.500000
vt 0.375000 0.500000
vt 0.625000 0.750000
vt 0.375000 0.750000
vt 0.125000 0.500000
vt 0.125000 0.750000
vt 0.875000 0.500000
vt 0.875000 0.750000
vn 0.0000 0.0000 1.0000
vn -1.0000 0.0000 0.0000
vn 0.0000 0.0000 -1.0000
vn 1.0000 0.0000 0.0000
vn 0.0000 -1.0000 0.0000
vn 0.0000 1.0000 0.0000
usemtl Material.010
s off
f 1/1/1 2/2/1 3/3/1 4/4/1
usemtl Material.002
f 4/5/2 3/6/2 5/7/2 6/8/2
f 6/8/3 5/7/3 7/9/3 8/10/3
f 8/10/4 7/9/4 2/11/4 1/12/4
f 6/13/5 8/10/5 1/12/5 4/14/5
f 7/9/6 5/15/6 3/16/6 2/11/6
