# Blender v2.92.0 OBJ File: 'untitled.blend'
# www.blender.org
mtllib dianzishu1.mtl
o 立方体.035
v 2.395958 0.947496 0.662719
v 2.395958 1.918849 0.662719
v 1.720836 1.918849 0.662719
v 1.720836 0.947496 0.662719
v 1.720836 1.918849 0.538700
v 1.720836 0.947496 0.538700
v 2.395958 1.918849 0.538700
v 2.395958 0.947496 0.538700
vt 0.988076 0.046745
vt 0.993116 0.969364
vt 0.100382 0.992341
vt 0.090303 0.022977
vt 0.375000 0.000000
vt 0.625000 0.000000
vt 0.625000 0.250000
vt 0.375000 0.250000
vt 0.625000 0.500000
vt 0.375000 0.500000
vt 0.625000 0.750000
vt 0.375000 0.750000
vt 0.125000 0.500000
vt 0.125000 0.750000
vt 0.875000 0.500000
vt 0.875000 0.750000
vn 0.0000 -0.0000 1.0000
vn -1.0000 -0.0000 0.0000
vn 0.0000 0.0000 -1.0000
vn 1.0000 -0.0000 0.0000
vn 0.0000 -1.0000 -0.0000
vn 0.0000 1.0000 0.0000
usemtl Material.035
s 1
f 1/1/1 2/2/1 3/3/1 4/4/1
usemtl Material.036
f 4/5/2 3/6/2 5/7/2 6/8/2
f 6/8/3 5/7/3 7/9/3 8/10/3
f 8/10/4 7/9/4 2/11/4 1/12/4
f 6/13/5 8/10/5 1/12/5 4/14/5
f 7/9/6 5/15/6 3/16/6 2/11/6
