# Blender v2.92.0 OBJ File: ''
# www.blender.org
mtllib houtui.mtl
o 立方体_立方体.004
v -8.170379 3.138174 2.225843
v -8.170379 3.138174 2.237501
v -8.170379 3.228786 2.237504
v -8.170379 3.228786 2.225843
v -7.930606 3.228786 2.237504
v -7.930606 3.228786 2.225843
v -7.930606 3.138174 2.237501
v -7.930606 3.138174 2.225843
vt 0.375000 0.000000
vt 0.625000 0.000000
vt 0.625000 0.250000
vt 0.375000 0.250000
vt 0.625000 0.500000
vt 0.375000 0.500000
vt 0.625000 0.750000
vt 0.375000 0.750000
vt 0.625000 1.000000
vt 0.375000 1.000000
vt 0.125000 0.500000
vt 0.125000 0.750000
vt 0.875000 0.500000
vt 0.875000 0.750000
vn -1.0000 0.0000 0.0000
vn 0.0000 1.0000 0.0000
vn 1.0000 0.0000 0.0000
vn 0.0000 -1.0000 0.0000
vn 0.0000 0.0000 -1.0000
vn 0.0000 -0.0000 1.0000
usemtl None.003
s 1
f 1/1/1 2/2/1 3/3/1 4/4/1
f 4/4/2 3/3/2 5/5/2 6/6/2
f 6/6/3 5/5/3 7/7/3 8/8/3
f 8/8/4 7/7/4 2/9/4 1/10/4
f 4/11/5 6/6/5 8/8/5 1/12/5
f 5/5/6 3/13/6 2/14/6 7/7/6
o Cube.002_Cube.003
v -8.074293 3.155703 2.240741
v -8.074293 3.213234 2.240741
v -8.074293 3.213234 2.233125
v -8.074293 3.155703 2.233125
v -8.038850 3.184469 2.233125
v -8.038850 3.184469 2.233125
v -8.038850 3.184469 2.240741
v -8.038850 3.184469 2.240741
v -8.053790 3.155812 2.240741
v -8.053790 3.213345 2.240741
v -8.054133 3.213234 2.233125
v -8.054133 3.155703 2.233125
v -8.018690 3.184469 2.233125
v -8.018690 3.184469 2.233125
v -8.018348 3.184578 2.240741
v -8.018348 3.184578 2.240741
vt 0.375000 0.000000
vt 0.625000 0.000000
vt 0.625000 0.250000
vt 0.375000 0.250000
vt 0.625000 0.500000
vt 0.375000 0.500000
vt 0.625000 0.750000
vt 0.375000 0.750000
vt 0.625000 1.000000
vt 0.375000 1.000000
vt 0.125000 0.500000
vt 0.125000 0.750000
vt 0.875000 0.500000
vt 0.875000 0.750000
vt 0.375000 0.000000
vt 0.625000 0.000000
vt 0.625000 0.250000
vt 0.375000 0.250000
vt 0.625000 0.500000
vt 0.375000 0.500000
vt 0.625000 0.750000
vt 0.375000 0.750000
vt 0.625000 1.000000
vt 0.375000 1.000000
vt 0.125000 0.500000
vt 0.125000 0.750000
vt 0.875000 0.500000
vt 0.875000 0.750000
vn -1.0000 0.0000 0.0000
vn 0.0000 0.0000 -1.0000
vn 0.0000 0.0000 0.0000
vn 0.0000 0.0000 1.0000
vn 0.6302 -0.7765 0.0000
vn 0.6302 0.7765 0.0000
vn -0.9990 0.0000 0.0450
vn 0.6301 -0.7763 -0.0172
vn 0.6297 0.7758 -0.0395
usemtl Material.001
s off
f 9/15/7 10/16/7 11/17/7 12/18/7
f 12/18/8 11/17/8 13/19/8 14/20/8
f 14/20/9 13/19/9 15/21/9 16/22/9
f 16/22/10 15/21/10 10/23/10 9/24/10
f 12/25/11 14/20/11 16/22/11 9/26/11
f 13/19/12 11/27/12 10/28/12 15/21/12
f 17/29/13 18/30/13 19/31/13 20/32/13
f 20/32/8 19/31/8 21/33/8 22/34/8
f 22/34/10 21/33/10 23/35/10 24/36/10
f 24/36/10 23/35/10 18/37/10 17/38/10
f 20/39/14 22/34/14 24/36/14 17/40/14
f 21/33/15 19/41/15 18/42/15 23/35/15
