# Blender v2.92.0 OBJ File: ''
# www.blender.org
mtllib pause.mtl
o 立方体_立方体.001
v -8.693191 3.138174 2.225843
v -8.693191 3.138174 2.237501
v -8.693191 3.228786 2.237504
v -8.693191 3.228786 2.225843
v -8.453418 3.228786 2.237504
v -8.453418 3.228786 2.225843
v -8.453418 3.138174 2.237501
v -8.453418 3.138174 2.225843
vt 0.375000 0.000000
vt 0.625000 0.000000
vt 0.625000 0.250000
vt 0.375000 0.250000
vt 0.625000 0.500000
vt 0.375000 0.500000
vt 0.625000 0.750000
vt 0.375000 0.750000
vt 0.625000 1.000000
vt 0.375000 1.000000
vt 0.125000 0.500000
vt 0.125000 0.750000
vt 0.875000 0.500000
vt 0.875000 0.750000
vn -1.0000 0.0000 0.0000
vn 0.0000 1.0000 0.0000
vn 1.0000 -0.0000 0.0000
vn 0.0000 -1.0000 0.0000
vn 0.0000 0.0000 -1.0000
vn 0.0000 -0.0000 1.0000
usemtl None.001
s 1
f 1/1/1 2/2/1 3/3/1 4/4/1
f 4/4/2 3/3/2 5/5/2 6/6/2
f 6/6/3 5/5/3 7/7/3 8/8/3
f 8/8/4 7/7/4 2/9/4 1/10/4
f 4/11/5 6/6/5 8/8/5 1/12/5
f 5/5/6 3/13/6 2/14/6 7/7/6
o Cube_Cube.001
v -8.596993 3.155703 2.240741
v -8.596993 3.213234 2.240741
v -8.596993 3.213234 2.233125
v -8.596993 3.155703 2.233125
v -8.585361 3.213234 2.233125
v -8.585361 3.155703 2.233125
v -8.585361 3.213234 2.240741
v -8.585361 3.155703 2.240741
vt 0.375000 0.000000
vt 0.625000 0.000000
vt 0.625000 0.250000
vt 0.375000 0.250000
vt 0.625000 0.500000
vt 0.375000 0.500000
vt 0.625000 0.750000
vt 0.375000 0.750000
vt 0.625000 1.000000
vt 0.375000 1.000000
vt 0.125000 0.500000
vt 0.125000 0.750000
vt 0.875000 0.500000
vt 0.875000 0.750000
vn -1.0000 0.0000 0.0000
vn 0.0000 0.0000 -1.0000
vn 1.0000 0.0000 0.0000
vn 0.0000 0.0000 1.0000
vn 0.0000 -1.0000 0.0000
vn 0.0000 1.0000 0.0000
usemtl Material.001
s off
f 9/15/7 10/16/7 11/17/7 12/18/7
f 12/18/8 11/17/8 13/19/8 14/20/8
f 14/20/9 13/19/9 15/21/9 16/22/9
f 16/22/10 15/21/10 10/23/10 9/24/10
f 12/25/11 14/20/11 16/22/11 9/26/11
f 13/19/12 11/27/12 10/28/12 15/21/12
o Cube.001_Cube.002
v -8.561623 3.155703 2.240741
v -8.561623 3.213234 2.240741
v -8.561623 3.213234 2.233125
v -8.561623 3.155703 2.233125
v -8.549990 3.213234 2.233125
v -8.549990 3.155703 2.233125
v -8.549990 3.213234 2.240741
v -8.549990 3.155703 2.240741
vt 0.375000 0.000000
vt 0.625000 0.000000
vt 0.625000 0.250000
vt 0.375000 0.250000
vt 0.625000 0.500000
vt 0.375000 0.500000
vt 0.625000 0.750000
vt 0.375000 0.750000
vt 0.625000 1.000000
vt 0.375000 1.000000
vt 0.125000 0.500000
vt 0.125000 0.750000
vt 0.875000 0.500000
vt 0.875000 0.750000
vn -1.0000 0.0000 0.0000
vn 0.0000 0.0000 -1.0000
vn 1.0000 0.0000 0.0000
vn 0.0000 0.0000 1.0000
vn 0.0000 -1.0000 0.0000
vn 0.0000 1.0000 0.0000
usemtl Material.001
s off
f 17/29/13 18/30/13 19/31/13 20/32/13
f 20/32/14 19/31/14 21/33/14 22/34/14
f 22/34/15 21/33/15 23/35/15 24/36/15
f 24/36/16 23/35/16 18/37/16 17/38/16
f 20/39/17 22/34/17 24/36/17 17/40/17
f 21/33/18 19/41/18 18/42/18 23/35/18
