# Blender v2.92.0 OBJ File: ''
# www.blender.org
mtllib shangfan.mtl
o 立方体_立方体.001
v -8.866302 6.702391 2.181643
v -8.866302 6.702391 2.254211
v -8.302268 6.702970 2.254230
v -8.302268 6.702970 2.181643
v -8.300736 5.210440 2.254230
v -8.300736 5.210440 2.181642
v -8.864778 5.209859 2.254210
v -8.864778 5.209859 2.181642
vt 0.375000 0.000000
vt 0.625000 0.000000
vt 0.625000 0.250000
vt 0.375000 0.250000
vt 0.625000 0.500000
vt 0.375000 0.500000
vt 0.625000 0.750000
vt 0.375000 0.750000
vt 0.625000 1.000000
vt 0.375000 1.000000
vt 0.125000 0.500000
vt 0.125000 0.750000
vt 0.875000 0.500000
vt 0.875000 0.750000
vn -0.0010 1.0000 0.0000
vn 1.0000 0.0010 0.0000
vn 0.0010 -1.0000 0.0000
vn -1.0000 -0.0010 0.0000
vn 0.0000 0.0000 -1.0000
vn -0.0000 -0.0000 1.0000
usemtl None.009
s 1
f 1/1/1 2/2/1 3/3/1 4/4/1
f 4/4/2 3/3/2 5/5/2 6/6/2
f 6/6/3 5/5/3 7/7/3 8/8/3
f 8/8/4 7/7/4 2/9/4 1/10/4
f 4/11/5 6/6/5 8/8/5 1/12/5
f 5/5/6 3/13/6 2/14/6 7/7/6
o Cube.003_Cube.002
v -8.759055 5.824152 2.226977
v -8.401008 5.817142 2.226977
v -8.401008 5.817142 2.274385
v -8.759055 5.824152 2.274385
v -8.575709 6.041225 2.274385
v -8.575709 6.041225 2.274385
v -8.575709 6.041225 2.226977
v -8.575709 6.041225 2.226977
v -8.755879 5.951741 2.226977
v -8.397820 5.944731 2.226977
v -8.398556 5.942605 2.274385
v -8.756603 5.949615 2.274385
v -8.573258 6.166693 2.274385
v -8.573258 6.166693 2.274385
v -8.572539 6.168808 2.226977
v -8.572539 6.168808 2.226977
vt 0.375000 0.000000
vt 0.625000 0.000000
vt 0.625000 0.250000
vt 0.375000 0.250000
vt 0.625000 0.500000
vt 0.375000 0.500000
vt 0.625000 0.750000
vt 0.375000 0.750000
vt 0.625000 1.000000
vt 0.375000 1.000000
vt 0.125000 0.500000
vt 0.125000 0.750000
vt 0.875000 0.500000
vt 0.875000 0.750000
vt 0.375000 0.000000
vt 0.625000 0.000000
vt 0.625000 0.250000
vt 0.375000 0.250000
vt 0.625000 0.500000
vt 0.375000 0.500000
vt 0.625000 0.750000
vt 0.375000 0.750000
vt 0.625000 1.000000
vt 0.375000 1.000000
vt 0.125000 0.500000
vt 0.125000 0.750000
vt 0.875000 0.500000
vt 0.875000 0.750000
vn -0.0196 -0.9998 0.0000
vn 0.0000 0.0000 1.0000
vn 0.0000 0.0000 0.0000
vn 0.0000 0.0000 -1.0000
vn -0.7640 0.6453 0.0000
vn 0.7886 0.6148 0.0000
vn -0.0196 -0.9988 -0.0451
vn -0.7639 0.6452 0.0172
vn 0.7880 0.6144 0.0396
usemtl Material.001
s off
f 9/15/7 10/16/7 11/17/7 12/18/7
f 12/18/8 11/17/8 13/19/8 14/20/8
f 14/20/9 13/19/9 15/21/9 16/22/9
f 16/22/10 15/21/10 10/23/10 9/24/10
f 12/25/11 14/20/11 16/22/11 9/26/11
f 13/19/12 11/27/12 10/28/12 15/21/12
f 17/29/13 18/30/13 19/31/13 20/32/13
f 20/32/8 19/31/8 21/33/8 22/34/8
f 22/34/8 21/33/8 23/35/8 24/36/8
f 24/36/10 23/35/10 18/37/10 17/38/10
f 20/39/14 22/34/14 24/36/14 17/40/14
f 21/33/15 19/41/15 18/42/15 23/35/15
