# Blender v2.92.0 OBJ File: ''
# www.blender.org
mtllib shujia.mtl
o 立方体
v 6.943882 0.908263 4.188925
v 6.943882 1.528729 4.188925
v 6.512637 1.528729 4.188925
v 6.512637 0.908263 4.188925
v 6.512637 1.528729 4.109706
v 6.512637 0.908263 4.109706
v 6.943882 1.528729 4.109706
v 6.943882 0.908263 4.109706
vt 0.855070 0.000000
vt 0.855070 1.000000
vt 0.147714 1.000000
vt 0.147714 0.000000
vt 0.375000 0.000000
vt 0.625000 0.000000
vt 0.625000 0.250000
vt 0.375000 0.250000
vt 0.625000 0.500000
vt 0.375000 0.500000
vt 0.625000 0.750000
vt 0.375000 0.750000
vt 0.125000 0.500000
vt 0.125000 0.750000
vt 0.875000 0.500000
vt 0.875000 0.750000
vn 0.0000 -0.0000 1.0000
vn -1.0000 0.0000 0.0000
vn 0.0000 0.0000 -1.0000
vn 1.0000 -0.0000 0.0000
vn 0.0000 -1.0000 0.0000
vn 0.0000 1.0000 0.0000
usemtl Material.012
s off
f 1/1/1 2/2/1 3/3/1 4/4/1
usemtl Material.002
f 4/5/2 3/6/2 5/7/2 6/8/2
f 6/8/3 5/7/3 7/9/3 8/10/3
f 8/10/4 7/9/4 2/11/4 1/12/4
f 6/13/5 8/10/5 1/12/5 4/14/5
f 7/9/6 5/15/6 3/16/6 2/11/6
o 立方体.001
v 5.587304 -0.000005 4.205960
v 5.587304 0.827494 4.205960
v 5.587304 1.654994 4.205960
v 5.587304 2.482494 4.205960
v 5.587304 3.309994 4.205960
v 5.587304 3.309999 3.243130
v 5.587304 -0.000005 3.243130
v 8.653967 3.309999 3.243130
v 8.653967 -0.000005 3.243130
v 8.653967 3.309994 4.205960
v 8.653967 2.482494 4.205960
v 8.653967 1.654994 4.205960
v 8.653967 0.827494 4.205960
v 8.653967 -0.000005 4.205960
v 6.283153 3.239177 4.205960
v 5.658120 3.239177 4.205960
v 5.658120 3.239182 3.446887
v 6.283153 3.239182 3.446887
v 7.887301 -0.000005 4.205960
v 7.120635 -0.000005 4.205960
v 6.353970 -0.000005 4.205960
v 6.353970 3.309994 4.205960
v 7.120635 3.309994 4.205960
v 7.887301 3.309994 4.205960
v 5.658120 1.584178 4.205960
v 5.658120 0.898310 4.205960
v 5.658120 0.898310 3.465262
v 5.658120 1.584178 3.465262
v 7.816485 1.584178 4.205960
v 7.191452 1.584178 4.205960
v 7.191452 1.584178 3.420588
v 7.816485 1.584178 3.420588
v 7.816485 2.553310 4.205960
v 7.816485 3.239177 4.205960
v 7.816485 3.239182 3.467306
v 7.816485 2.553313 3.467306
v 7.191452 2.411678 4.205960
v 7.191452 1.725810 4.205960
v 7.191452 1.725810 3.484270
v 7.191452 2.411683 3.484272
v 8.583151 2.411678 4.205960
v 7.958117 2.411678 4.205960
v 7.958117 2.411683 3.432858
v 8.583151 2.411683 3.432858
v 7.958117 3.239177 4.205960
v 7.958117 2.553310 4.205960
v 7.958117 2.553313 3.465575
v 7.958117 3.239182 3.465575
v 7.191452 0.070810 4.205960
v 7.816485 0.070810 4.205960
v 7.816485 0.070810 3.461192
v 7.191452 0.070810 3.461192
v 8.583151 0.756678 4.205960
v 7.958117 0.756678 4.205960
v 7.958117 0.756678 3.446175
v 8.583151 0.756678 3.446175
v 7.958117 1.584178 4.205960
v 7.958117 0.898310 4.205960
v 7.958117 0.898310 3.437009
v 7.958117 1.584178 3.437009
v 6.283153 0.756678 4.205960
v 5.658120 0.756678 4.205960
v 5.658120 0.756678 3.450761
v 6.283153 0.756678 3.450761
v 7.049819 0.756678 4.205960
v 6.424786 0.756678 4.205960
v 6.424786 0.756678 3.477630
v 7.049819 0.756678 3.477630
v 6.424786 1.584178 4.205960
v 6.424786 0.898310 4.205960
v 6.424786 0.898310 3.465632
v 6.424786 1.584178 3.465632
v 6.283153 2.411678 4.205960
v 5.658120 2.411678 4.205960
v 5.658120 2.411683 3.452019
v 6.283153 2.411683 3.452019
v 7.049819 1.725810 4.205960
v 7.049819 2.411678 4.205960
v 7.049819 2.411683 3.444499
v 7.049819 1.725810 3.444499
v 6.424786 3.239177 4.205960
v 6.424786 2.553310 4.205960
v 6.424786 2.553313 3.453063
v 6.424786 3.239182 3.453063
v 6.353970 2.482494 4.205960
v 6.283153 2.553310 4.205960
v 5.658120 2.553310 4.205960
v 6.353970 0.827494 4.205960
v 6.353970 1.654994 4.205960
v 6.283153 1.584178 4.205960
v 6.283153 0.898310 4.205960
v 7.887301 0.827494 4.205960
v 7.887301 1.654994 4.205960
v 7.816485 0.898310 4.205960
v 7.120635 1.654994 4.205960
v 7.120635 0.827494 4.205960
v 7.191452 0.898310 4.205960
v 7.887301 2.482494 4.205960
v 7.191452 3.239177 4.205960
v 7.120635 2.482494 4.205960
v 7.191452 2.553310 4.205960
v 7.816485 2.411678 4.205960
v 7.816485 1.725810 4.205960
v 8.583151 1.725810 4.205960
v 7.958117 1.725810 4.205960
v 8.583151 3.239177 4.205960
v 8.583151 2.553310 4.205960
v 7.816485 0.756678 4.205960
v 7.191452 0.756678 4.205960
v 8.583151 0.070810 4.205960
v 7.958117 0.070810 4.205960
v 8.583151 1.584178 4.205960
v 8.583151 0.898310 4.205960
v 6.283153 0.070810 4.205960
v 5.658120 0.070810 4.205960
v 7.049819 0.070810 4.205960
v 6.424786 0.070810 4.205960
v 7.049819 1.584178 4.205960
v 7.049819 0.898310 4.205960
v 6.283153 1.725810 4.205960
v 5.658120 1.725810 4.205960
v 6.424786 2.411678 4.205960
v 6.424786 1.725810 4.205960
v 7.049819 3.239177 4.205960
v 7.049819 2.553310 4.205960
v 6.283153 2.553313 3.446887
v 5.658120 2.553313 3.446887
v 7.049819 2.553313 3.453063
v 7.049819 3.239182 3.453063
v 7.191452 3.239182 3.467306
v 7.191452 2.553313 3.467306
v 8.583151 2.553313 3.465575
v 8.583151 3.239182 3.465575
v 6.283153 1.725810 3.452019
v 5.658120 1.725810 3.452019
v 6.283153 0.898310 3.465262
v 6.283153 1.584178 3.465262
v 6.283153 0.070810 3.450761
v 5.658120 0.070810 3.450761
v 6.424786 2.411683 3.444499
v 6.424786 1.725810 3.444499
v 7.049819 0.898310 3.465632
v 7.049819 1.584178 3.465632
v 7.816485 1.725810 3.484270
v 7.816485 2.411683 3.484272
v 7.816485 0.898310 3.420588
v 7.191452 0.898310 3.420588
v 8.583151 1.725810 3.432856
v 7.958117 1.725810 3.432856
v 8.583151 0.898310 3.437009
v 8.583151 1.584178 3.437009
v 7.049819 0.070810 3.477630
v 6.424786 0.070810 3.477630
v 7.816485 0.756678 3.461192
v 7.191452 0.756678 3.461192
v 8.583151 0.070810 3.446175
v 7.958117 0.070810 3.446175
vt 0.375000 0.000000
vt 0.437500 0.000000
vt 0.500000 0.000000
vt 0.562500 0.000000
vt 0.625000 0.000000
vt 0.625000 0.250000
vt 0.375000 0.250000
vt 0.625000 0.500000
vt 0.375000 0.500000
vt 0.625000 0.750000
vt 0.562500 0.750000
vt 0.500000 0.750000
vt 0.437500 0.750000
vt 0.375000 0.750000
vt 0.619651 0.943273
vt 0.619651 0.994227
vt 0.619651 0.994227
vt 0.619651 0.943273
vt 0.125000 0.500000
vt 0.312500 0.750000
vt 0.250000 0.750000
vt 0.187500 0.750000
vt 0.125000 0.750000
vt 0.875000 0.500000
vt 0.875000 0.750000
vt 0.812500 0.750000
vt 0.750000 0.750000
vt 0.687500 0.750000
vt 0.494651 0.994227
vt 0.442849 0.994227
vt 0.442849 0.994227
vt 0.494651 0.994227
vt 0.494651 0.818273
vt 0.494651 0.869227
vt 0.494651 0.869227
vt 0.494651 0.818273
vt 0.567849 0.818273
vt 0.619651 0.818273
vt 0.619651 0.818273
vt 0.567849 0.818273
vt 0.557151 0.869227
vt 0.505349 0.869227
vt 0.505349 0.869227
vt 0.557151 0.869227
vt 0.557151 0.755773
vt 0.557151 0.806727
vt 0.557151 0.806727
vt 0.557151 0.755773
vt 0.619651 0.806727
vt 0.567849 0.806727
vt 0.567849 0.806727
vt 0.619651 0.806727
vt 0.380349 0.869227
vt 0.380349 0.818273
vt 0.380349 0.818273
vt 0.380349 0.869227
vt 0.432151 0.755773
vt 0.432151 0.806727
vt 0.432151 0.806727
vt 0.432151 0.755773
vt 0.494651 0.806727
vt 0.442849 0.806727
vt 0.442849 0.806727
vt 0.494651 0.806727
vt 0.432151 0.943273
vt 0.432151 0.994227
vt 0.432151 0.994227
vt 0.432151 0.943273
vt 0.432151 0.880773
vt 0.432151 0.931727
vt 0.432151 0.931727
vt 0.432151 0.880773
vt 0.494651 0.931727
vt 0.442849 0.931727
vt 0.442849 0.931727
vt 0.494651 0.931727
vt 0.557151 0.943273
vt 0.557151 0.994227
vt 0.557151 0.994227
vt 0.557151 0.943273
vt 0.505349 0.880773
vt 0.557151 0.880773
vt 0.557151 0.880773
vt 0.505349 0.880773
vt 0.619651 0.931727
vt 0.567849 0.931727
vt 0.567849 0.931727
vt 0.619651 0.931727
vt 0.562500 0.937500
vt 0.625000 0.937500
vt 0.567849 0.943273
vt 0.625000 1.000000
vt 0.562500 1.000000
vt 0.567849 0.994227
vt 0.437500 0.937500
vt 0.500000 0.937500
vt 0.494651 0.943273
vt 0.442849 0.943273
vt 0.500000 1.000000
vt 0.437500 1.000000
vt 0.437500 0.812500
vt 0.500000 0.812500
vt 0.442849 0.818273
vt 0.500000 0.875000
vt 0.437500 0.875000
vt 0.442849 0.869227
vt 0.562500 0.812500
vt 0.625000 0.812500
vt 0.625000 0.875000
vt 0.619651 0.869227
vt 0.562500 0.875000
vt 0.567849 0.869227
vt 0.557151 0.818273
vt 0.505349 0.818273
vt 0.505349 0.755773
vt 0.505349 0.806727
vt 0.619651 0.755773
vt 0.567849 0.755773
vt 0.375000 0.812500
vt 0.432151 0.818273
vt 0.432151 0.869227
vt 0.375000 0.875000
vt 0.380349 0.755773
vt 0.380349 0.806727
vt 0.494651 0.755773
vt 0.442849 0.755773
vt 0.375000 0.937500
vt 0.380349 0.943273
vt 0.375000 1.000000
vt 0.380349 0.994227
vt 0.380349 0.880773
vt 0.380349 0.931727
vt 0.494651 0.880773
vt 0.442849 0.880773
vt 0.505349 0.943273
vt 0.505349 0.994227
vt 0.557151 0.931727
vt 0.505349 0.931727
vt 0.619651 0.880773
vt 0.567849 0.880773
vt 0.567849 0.943273
vt 0.567849 0.994227
vt 0.567849 0.880773
vt 0.619651 0.880773
vt 0.619651 0.869227
vt 0.567849 0.869227
vt 0.567849 0.755773
vt 0.619651 0.755773
vt 0.505349 0.943273
vt 0.505349 0.994227
vt 0.442849 0.943273
vt 0.494651 0.943273
vt 0.380349 0.943273
vt 0.380349 0.994227
vt 0.557151 0.931727
vt 0.505349 0.931727
vt 0.442849 0.880773
vt 0.494651 0.880773
vt 0.505349 0.818273
vt 0.557151 0.818273
vt 0.442849 0.818273
vt 0.442849 0.869227
vt 0.505349 0.755773
vt 0.505349 0.806727
vt 0.442849 0.755773
vt 0.494651 0.755773
vt 0.380349 0.880773
vt 0.380349 0.931727
vt 0.432151 0.818273
vt 0.432151 0.869227
vt 0.380349 0.755773
vt 0.380349 0.806727
vn -1.0000 -0.0000 0.0000
vn 0.0000 0.0000 -1.0000
vn 1.0000 0.0000 0.0000
vn 0.0000 -1.0000 -0.0000
vn 0.0000 1.0000 0.0000
vn 0.0000 0.0000 1.0000
usemtl 材质.001
s 1
f 9/17/7 10/18/7 11/19/7 12/20/7 13/21/7 14/22/7 15/23/7
f 15/23/8 14/22/8 16/24/8 17/25/8
f 17/25/9 16/24/9 18/26/9 19/27/9 20/28/9 21/29/9 22/30/9
f 23/31/10 24/32/10 25/33/10 26/34/10
f 15/35/10 17/25/10 22/30/10 27/36/10 28/37/10 29/38/10 9/39/10
f 16/24/11 14/40/11 13/41/11 30/42/11 31/43/11 32/44/11 18/26/11
f 33/45/9 34/46/9 35/47/9 36/48/9
f 37/49/10 38/50/10 39/51/10 40/52/10
f 41/53/7 42/54/7 43/55/7 44/56/7
f 45/57/9 46/58/9 47/59/9 48/60/9
f 49/61/10 50/62/10 51/63/10 52/64/10
f 53/65/9 54/66/9 55/67/9 56/68/9
f 57/69/11 58/70/11 59/71/11 60/72/11
f 61/73/10 62/74/10 63/75/10 64/76/10
f 65/77/9 66/78/9 67/79/9 68/80/9
f 69/81/10 70/82/10 71/83/10 72/84/10
f 73/85/10 74/86/10 75/87/10 76/88/10
f 77/89/9 78/90/9 79/91/9 80/92/9
f 81/93/10 82/94/10 83/95/10 84/96/10
f 85/97/7 86/98/7 87/99/7 88/100/7
f 89/101/9 90/102/9 91/103/9 92/104/9
f 93/105/12 30/106/12 23/31/12 94/107/12
f 30/106/12 13/108/12 24/32/12 23/31/12
f 13/108/12 12/109/12 95/110/12 24/32/12
f 12/109/12 93/105/12 94/107/12 95/110/12
f 96/111/12 97/112/12 98/113/12 99/114/12
f 97/112/12 11/115/12 33/45/12 98/113/12
f 11/115/12 10/116/12 34/46/12 33/45/12
f 10/116/12 96/111/12 99/114/12 34/46/12
f 100/117/12 101/118/12 37/49/12 102/119/12
f 101/118/12 103/120/12 38/50/12 37/49/12
f 103/120/12 104/121/12 105/122/12 38/50/12
f 104/121/12 100/117/12 102/119/12 105/122/12
f 106/123/12 32/124/12 42/54/12 41/53/12
f 32/124/12 31/125/12 107/126/12 42/54/12
f 31/125/12 108/127/12 109/128/12 107/126/12
f 108/127/12 106/123/12 41/53/12 109/128/12
f 101/118/12 106/123/12 110/129/12 111/130/12
f 106/123/12 108/127/12 45/57/12 110/129/12
f 108/127/12 103/120/12 46/58/12 45/57/12
f 103/120/12 101/118/12 111/130/12 46/58/12
f 20/28/12 19/27/12 49/61/12 112/131/12
f 19/27/12 106/123/12 50/62/12 49/61/12
f 106/123/12 101/118/12 113/132/12 50/62/12
f 101/118/12 20/28/12 112/131/12 113/132/12
f 19/27/12 18/26/12 114/133/12 115/134/12
f 18/26/12 32/124/12 53/65/12 114/133/12
f 32/124/12 106/123/12 54/66/12 53/65/12
f 106/123/12 19/27/12 115/134/12 54/66/12
f 27/135/12 100/117/12 116/136/12 58/70/12
f 100/117/12 104/121/12 117/137/12 116/136/12
f 104/121/12 28/138/12 57/69/12 117/137/12
f 28/138/12 27/135/12 58/70/12 57/69/12
f 22/30/12 21/29/12 61/73/12 118/139/12
f 21/29/12 100/117/12 62/74/12 61/73/12
f 100/117/12 27/135/12 119/140/12 62/74/12
f 27/135/12 22/30/12 118/139/12 119/140/12
f 21/29/12 20/28/12 120/141/12 121/142/12
f 20/28/12 101/118/12 65/77/12 120/141/12
f 101/118/12 100/117/12 66/78/12 65/77/12
f 100/117/12 21/29/12 121/142/12 66/78/12
f 29/143/12 96/111/12 69/81/12 122/144/12
f 96/111/12 10/116/12 70/82/12 69/81/12
f 10/116/12 9/145/12 123/146/12 70/82/12
f 9/145/12 29/143/12 122/144/12 123/146/12
f 28/138/12 104/121/12 73/85/12 124/147/12
f 104/121/12 96/111/12 74/86/12 73/85/12
f 96/111/12 29/143/12 125/148/12 74/86/12
f 29/143/12 28/138/12 124/147/12 125/148/12
f 104/121/12 103/120/12 126/149/12 127/150/12
f 103/120/12 97/112/12 77/89/12 126/149/12
f 97/112/12 96/111/12 78/90/12 77/89/12
f 96/111/12 104/121/12 127/150/12 78/90/12
f 97/112/12 93/105/12 81/93/12 128/151/12
f 93/105/12 12/109/12 82/94/12 81/93/12
f 12/109/12 11/115/12 129/152/12 82/94/12
f 11/115/12 97/112/12 128/151/12 129/152/12
f 103/120/12 108/127/12 86/98/12 85/97/12
f 108/127/12 93/105/12 130/153/12 86/98/12
f 93/105/12 97/112/12 131/154/12 130/153/12
f 97/112/12 103/120/12 85/97/12 131/154/12
f 108/127/12 31/125/12 132/155/12 133/156/12
f 31/125/12 30/106/12 89/101/12 132/155/12
f 30/106/12 93/105/12 90/102/12 89/101/12
f 93/105/12 108/127/12 133/156/12 90/102/12
f 134/157/12 26/34/12 25/33/12 135/158/12
f 94/107/7 23/31/7 26/34/7 134/157/7
f 24/32/9 95/110/9 135/158/9 25/33/9
f 95/110/11 94/107/11 134/157/11 135/158/11
f 136/159/12 137/160/12 92/104/12 91/103/12
f 90/102/11 133/156/11 136/159/11 91/103/11
f 132/155/10 89/101/10 92/104/10 137/160/10
f 133/156/7 132/155/7 137/160/7 136/159/7
f 44/56/12 43/55/12 138/161/12 139/162/12
f 107/126/9 109/128/9 139/162/9 138/161/9
f 109/128/11 41/53/11 44/56/11 139/162/11
f 42/54/10 107/126/10 138/161/10 43/55/10
f 140/163/12 141/164/12 56/68/12 55/67/12
f 54/66/11 115/134/11 140/163/11 55/67/11
f 114/133/10 53/65/10 56/68/10 141/164/10
f 115/134/7 114/133/7 141/164/7 140/163/7
f 142/165/12 84/96/12 83/95/12 143/166/12
f 128/151/7 81/93/7 84/96/7 142/165/7
f 82/94/9 129/152/9 143/166/9 83/95/9
f 129/152/11 128/151/11 142/165/11 143/166/11
f 144/167/12 145/168/12 36/48/12 35/47/12
f 34/46/11 99/114/11 144/167/11 35/47/11
f 98/113/10 33/45/10 36/48/10 145/168/10
f 99/114/7 98/113/7 145/168/7 144/167/7
f 146/169/12 72/84/12 71/83/12 147/170/12
f 122/144/7 69/81/7 72/84/7 146/169/7
f 70/82/9 123/146/9 147/170/9 71/83/9
f 123/146/11 122/144/11 146/169/11 147/170/11
f 88/100/12 87/99/12 148/171/12 149/172/12
f 130/153/9 131/154/9 149/172/9 148/171/9
f 131/154/11 85/97/11 88/100/11 149/172/11
f 86/98/10 130/153/10 148/171/10 87/99/10
f 150/173/12 151/174/12 80/92/12 79/91/12
f 78/90/11 127/150/11 150/173/11 79/91/11
f 126/149/10 77/89/10 80/92/10 151/174/10
f 127/150/7 126/149/7 151/174/7 150/173/7
f 152/175/12 153/176/12 48/60/12 47/59/12
f 46/58/11 111/130/11 152/175/11 47/59/11
f 110/129/10 45/57/10 48/60/10 153/176/10
f 111/130/7 110/129/7 153/176/7 152/175/7
f 154/177/12 40/52/12 39/51/12 155/178/12
f 102/119/7 37/49/7 40/52/7 154/177/7
f 38/50/9 105/122/9 155/178/9 39/51/9
f 105/122/11 102/119/11 154/177/11 155/178/11
f 156/179/12 52/64/12 51/63/12 157/180/12
f 112/131/7 49/61/7 52/64/7 156/179/7
f 50/62/9 113/132/9 157/180/9 51/63/9
f 113/132/11 112/131/11 156/179/11 157/180/11
f 158/181/12 159/182/12 68/80/12 67/79/12
f 66/78/11 121/142/11 158/181/11 67/79/11
f 120/141/10 65/77/10 68/80/10 159/182/10
f 121/142/7 120/141/7 159/182/7 158/181/7
f 160/183/12 76/88/12 75/87/12 161/184/12
f 124/147/7 73/85/7 76/88/7 160/183/7
f 74/86/9 125/148/9 161/184/9 75/87/9
f 125/148/11 124/147/11 160/183/11 161/184/11
f 59/71/12 162/185/12 163/186/12 60/72/12
f 116/136/10 117/137/10 163/186/10 162/185/10
f 58/70/7 116/136/7 162/185/7 59/71/7
f 117/137/9 57/69/9 60/72/9 163/186/9
f 164/187/12 64/76/12 63/75/12 165/188/12
f 118/139/7 61/73/7 64/76/7 164/187/7
f 62/74/9 119/140/9 165/188/9 63/75/9
f 119/140/11 118/139/11 164/187/11 165/188/11
o 立方体.002
v 6.199530 0.908263 4.188925
v 6.199530 1.528729 4.188925
v 5.768285 1.528729 4.188925
v 5.768285 0.908263 4.188925
v 5.768285 1.528729 4.109706
v 5.768285 0.908263 4.109706
v 6.199530 1.528729 4.109706
v 6.199530 0.908263 4.109706
vt 0.998155 0.000000
vt 0.998156 1.000000
vt 0.004628 1.000000
vt 0.004628 0.000000
vt 0.375000 0.000000
vt 0.625000 0.000000
vt 0.625000 0.250000
vt 0.375000 0.250000
vt 0.625000 0.500000
vt 0.375000 0.500000
vt 0.625000 0.750000
vt 0.375000 0.750000
vt 0.125000 0.500000
vt 0.125000 0.750000
vt 0.875000 0.500000
vt 0.875000 0.750000
vn 0.0000 -0.0000 1.0000
vn -1.0000 0.0000 0.0000
vn 0.0000 0.0000 -1.0000
vn 1.0000 0.0000 0.0000
vn 0.0000 -1.0000 0.0000
vn 0.0000 1.0000 0.0000
usemtl Material.011
s off
f 166/189/13 167/190/13 168/191/13 169/192/13
usemtl Material.002
f 169/193/14 168/194/14 170/195/14 171/196/14
f 171/196/15 170/195/15 172/197/15 173/198/15
f 173/198/16 172/197/16 167/199/16 166/200/16
f 171/201/17 173/198/17 166/200/17 169/202/17
f 172/197/18 170/203/18 168/204/18 167/199/18
o 立方体.003
v 7.707989 0.908263 4.188925
v 7.707989 1.528729 4.188925
v 7.276744 1.528729 4.188925
v 7.276744 0.908263 4.188925
v 7.276744 1.528729 4.109706
v 7.276744 0.908263 4.109706
v 7.707989 1.528729 4.109706
v 7.707989 0.908263 4.109706
vt 0.798155 0.084000
vt 0.810156 0.916000
vt 0.212628 0.936000
vt 0.204628 0.048000
vt 0.375000 0.000000
vt 0.625000 0.000000
vt 0.625000 0.250000
vt 0.375000 0.250000
vt 0.625000 0.500000
vt 0.375000 0.500000
vt 0.625000 0.750000
vt 0.375000 0.750000
vt 0.125000 0.500000
vt 0.125000 0.750000
vt 0.875000 0.500000
vt 0.875000 0.750000
vn 0.0000 -0.0000 1.0000
vn -1.0000 0.0000 0.0000
vn 0.0000 0.0000 -1.0000
vn 1.0000 -0.0000 0.0000
vn 0.0000 -1.0000 0.0000
vn 0.0000 1.0000 0.0000
usemtl Material.013
s off
f 174/205/19 175/206/19 176/207/19 177/208/19
usemtl Material.002
f 177/209/20 176/210/20 178/211/20 179/212/20
f 179/212/21 178/211/21 180/213/21 181/214/21
f 181/214/22 180/213/22 175/215/22 174/216/22
f 179/217/23 181/214/23 174/216/23 177/218/23
f 180/213/24 178/219/24 176/220/24 175/215/24
o 立方体.004
v 8.480385 0.908263 4.188925
v 8.480385 1.528729 4.188925
v 8.049141 1.528729 4.188925
v 8.049141 0.908263 4.188925
v 8.049141 1.528729 4.109706
v 8.049141 0.908263 4.109706
v 8.480385 1.528729 4.109706
v 8.480385 0.908263 4.109706
vt 0.998155 0.000000
vt 0.998156 1.000000
vt 0.004628 1.000000
vt 0.004628 0.000000
vt 0.375000 0.000000
vt 0.625000 0.000000
vt 0.625000 0.250000
vt 0.375000 0.250000
vt 0.625000 0.500000
vt 0.375000 0.500000
vt 0.625000 0.750000
vt 0.375000 0.750000
vt 0.125000 0.500000
vt 0.125000 0.750000
vt 0.875000 0.500000
vt 0.875000 0.750000
vn 0.0000 -0.0000 1.0000
vn -1.0000 0.0000 0.0000
vn 0.0000 0.0000 -1.0000
vn 1.0000 -0.0000 0.0000
vn 0.0000 -1.0000 0.0000
vn 0.0000 1.0000 0.0000
usemtl Material.014
s off
f 182/221/25 183/222/25 184/223/25 185/224/25
usemtl Material.002
f 185/225/26 184/226/26 186/227/26 187/228/26
f 187/228/27 186/227/27 188/229/27 189/230/27
f 189/230/28 188/229/28 183/231/28 182/232/28
f 187/233/29 189/230/29 182/232/29 185/234/29
f 188/229/30 186/235/30 184/236/30 183/231/30
o 立方体.013
v 6.943882 0.100460 4.188925
v 6.943882 0.720926 4.188925
v 6.512637 0.720926 4.188925
v 6.512637 0.100460 4.188925
v 6.512637 0.720926 4.109706
v 6.512637 0.100460 4.109706
v 6.943882 0.720926 4.109706
v 6.943882 0.100460 4.109706
vt 0.854155 0.020000
vt 0.838156 0.968000
vt 0.180628 0.996000
vt 0.180628 0.004000
vt 0.375000 0.000000
vt 0.625000 0.000000
vt 0.625000 0.250000
vt 0.375000 0.250000
vt 0.625000 0.500000
vt 0.375000 0.500000
vt 0.625000 0.750000
vt 0.375000 0.750000
vt 0.125000 0.500000
vt 0.125000 0.750000
vt 0.875000 0.500000
vt 0.875000 0.750000
vn 0.0000 0.0000 1.0000
vn -1.0000 0.0000 0.0000
vn 0.0000 0.0000 -1.0000
vn 1.0000 0.0000 0.0000
vn 0.0000 -1.0000 -0.0000
vn 0.0000 1.0000 0.0000
usemtl Material.016
s off
f 190/237/31 191/238/31 192/239/31 193/240/31
usemtl Material.002
f 193/241/32 192/242/32 194/243/32 195/244/32
f 195/244/33 194/243/33 196/245/33 197/246/33
f 197/246/34 196/245/34 191/247/34 190/248/34
f 195/249/35 197/246/35 190/248/35 193/250/35
f 196/245/36 194/251/36 192/252/36 191/247/36
o 立方体.014
v 6.199530 0.100460 4.188925
v 6.199530 0.720926 4.188925
v 5.768285 0.720926 4.188925
v 5.768285 0.100460 4.188925
v 5.768285 0.720926 4.109706
v 5.768285 0.100460 4.109706
v 6.199530 0.720926 4.109706
v 6.199530 0.100460 4.109706
vt 0.794707 0.120690
vt 0.798569 0.873241
vt 0.256353 0.882156
vt 0.249456 0.096552
vt 0.375000 0.000000
vt 0.625000 0.000000
vt 0.625000 0.250000
vt 0.375000 0.250000
vt 0.625000 0.500000
vt 0.375000 0.500000
vt 0.625000 0.750000
vt 0.375000 0.750000
vt 0.125000 0.500000
vt 0.125000 0.750000
vt 0.875000 0.500000
vt 0.875000 0.750000
vn 0.0000 0.0000 1.0000
vn -1.0000 0.0000 0.0000
vn 0.0000 0.0000 -1.0000
vn 1.0000 0.0000 0.0000
vn 0.0000 -1.0000 -0.0000
vn 0.0000 1.0000 0.0000
usemtl Material.015
s off
f 198/253/37 199/254/37 200/255/37 201/256/37
usemtl Material.002
f 201/257/38 200/258/38 202/259/38 203/260/38
f 203/260/39 202/259/39 204/261/39 205/262/39
f 205/262/40 204/261/40 199/263/40 198/264/40
f 203/265/41 205/262/41 198/264/41 201/266/41
f 204/261/42 202/267/42 200/268/42 199/263/42
o 立方体.015
v 7.707989 0.100460 4.188925
v 7.707989 0.720926 4.188925
v 7.276744 0.720926 4.188925
v 7.276744 0.100460 4.188925
v 7.276744 0.720926 4.109706
v 7.276744 0.100460 4.109706
v 7.707989 0.720926 4.109706
v 7.707989 0.100460 4.109706
vt 0.879357 0.000000
vt 0.879357 1.000000
vt 0.123427 1.000000
vt 0.123427 0.000000
vt 0.375000 0.000000
vt 0.625000 0.000000
vt 0.625000 0.250000
vt 0.375000 0.250000
vt 0.625000 0.500000
vt 0.375000 0.500000
vt 0.625000 0.750000
vt 0.375000 0.750000
vt 0.125000 0.500000
vt 0.125000 0.750000
vt 0.875000 0.500000
vt 0.875000 0.750000
vn 0.0000 0.0000 1.0000
vn -1.0000 0.0000 0.0000
vn 0.0000 0.0000 -1.0000
vn 1.0000 0.0000 0.0000
vn 0.0000 -1.0000 -0.0000
vn 0.0000 1.0000 0.0000
usemtl Material.017
s off
f 206/269/43 207/270/43 208/271/43 209/272/43
usemtl Material.002
f 209/273/44 208/274/44 210/275/44 211/276/44
f 211/276/45 210/275/45 212/277/45 213/278/45
f 213/278/46 212/277/46 207/279/46 206/280/46
f 211/281/47 213/278/47 206/280/47 209/282/47
f 212/277/48 210/283/48 208/284/48 207/279/48
o 立方体.016
v 8.480385 0.100460 4.188925
v 8.480385 0.720926 4.188925
v 8.049141 0.720926 4.188925
v 8.049141 0.100460 4.188925
v 8.049141 0.720926 4.109706
v 8.049141 0.100460 4.109706
v 8.480385 0.720926 4.109706
v 8.480385 0.100460 4.109706
vt 0.998155 0.000000
vt 0.998156 1.000000
vt 0.004628 1.000000
vt 0.004628 0.000000
vt 0.375000 0.000000
vt 0.625000 0.000000
vt 0.625000 0.250000
vt 0.375000 0.250000
vt 0.625000 0.500000
vt 0.375000 0.500000
vt 0.625000 0.750000
vt 0.375000 0.750000
vt 0.125000 0.500000
vt 0.125000 0.750000
vt 0.875000 0.500000
vt 0.875000 0.750000
vn 0.0000 0.0000 1.0000
vn -1.0000 0.0000 0.0000
vn 0.0000 0.0000 -1.0000
vn 1.0000 0.0000 0.0000
vn 0.0000 -1.0000 -0.0000
vn 0.0000 1.0000 0.0000
usemtl Material.001
s off
f 214/285/49 215/286/49 216/287/49 217/288/49
usemtl Material.002
f 217/289/50 216/290/50 218/291/50 219/292/50
f 219/292/51 218/291/51 220/293/51 221/294/51
f 221/294/52 220/293/52 215/295/52 214/296/52
f 219/297/53 221/294/53 214/296/53 217/298/53
f 220/293/54 218/299/54 216/300/54 215/295/54
